<?xml version="1.0" encoding="utf-8"?>
<!-- Svg Vector Icons : http://www.onlinewebfonts.com/icon -->
<!DOCTYPE svg PUBLIC "-//W3C//DTD SVG 1.1//EN" "http://www.w3.org/Graphics/SVG/1.1/DTD/svg11.dtd">
<svg version="1.1" xmlns="http://www.w3.org/2000/svg" xmlns:xlink="http://www.w3.org/1999/xlink" x="0px" y="0px" viewBox="0 0 256 256" enable-background="new 0 0 256 256" xml:space="preserve">
<metadata> Svg Vector Icons : http://www.onlinewebfonts.com/icon </metadata>
<g><g><g><path fill="#A27304" d="M99,42.4c-9.8,1.4-19.5,6.8-25.8,14.4c-3,3.6-6.6,10.9-7.9,15.8c-1.3,4.8-1.4,14-0.2,19.3c3,13.9,11.9,28.9,25.8,43.1l4.1,4.3h-1.9c-1,0-9.5-0.4-18.9-1c-24.3-1.4-32.6-0.8-42.3,2.9c-8.7,3.3-16.6,9.6-20.2,16.1l-1.7,3v12.8c0,12.1,0,13,1,14.8c5.3,11.1,41,20,100.5,25c18.6,1.6,13.3,2.7,43.1-9.1c65.7-26.1,89.5-35.9,90.7-37.4c1.8-2.3,0-7.7-3.5-10.8c-3-2.6-8.8-5.1-14.4-6.4c-12.1-2.8-27.3-1.9-59.9,3.5c-9.5,1.6-11.5,1.8-11.8,1.2c-0.2-0.4-0.4-0.7-0.4-0.9c0-0.1,1.9-1.8,4.2-3.7c2.4-1.8,7.3-6.3,10.9-9.9c16.7-16.2,25.8-30,29.9-45.4c1-3.8,1.2-5.4,1.2-11.3c0-5.8-0.1-7.5-1-10.6c-4.1-14.8-15.4-25.7-30.1-29c-12.4-2.8-25.6,0.5-34.9,8.7l-2.5,2.2l-3.5-2.8c-4.1-3.3-10.7-6.6-15.5-7.8C109.9,42.2,103,41.8,99,42.4z M111.4,52.8c5.8,1.3,9.4,3.5,15.7,9.7l5.8,5.6l5.5-5.4c4.7-4.6,6.1-5.7,9.5-7.3c5.7-2.8,8.9-3.5,15-3.2c8.5,0.4,14.3,2.9,20.3,8.9c5.9,5.9,8.7,12.9,8.7,21.7c-0.1,11.1-5.4,23.3-15.8,36.4c-5.7,7.2-16.5,17.7-25.8,25.1l-3,2.4l-1.7-0.8c-1.7-0.9-7.3-2.9-10.6-3.7c-1-0.3-6.8-0.7-12.9-1.1l-11.1-0.6l-2.2-1.8c-3.9-3.1-15.1-14.6-18.7-19.1C81.4,108.4,76,97.9,74.6,88.9c-0.7-4.3-0.6-10.3,0.2-13.8c2.5-10.6,11.6-19.8,22.1-22.3C100.6,51.9,107.7,51.9,111.4,52.8z M93.2,149.1l38.3,2.1l4.4,1.4c2.4,0.7,5.5,1.9,6.9,2.7l2.5,1.3l-2.5,0.6c-23.9,5.3-40.9,8-55,8.7c-7.9,0.5-9,0.8-10,3.3c-0.9,2.2-0.2,4.6,1.8,5.9c1.5,1.1,1.8,1.1,6.9,0.8c14.8-0.8,31.7-3.3,51.6-7.7c16.7-3.7,43.7-8.2,59.2-9.9c8.4-0.9,21-1.1,25.1-0.2c4,0.8,10.1,2.8,10.1,3.2c0,0.6-34,14.4-86.2,35.1l-20.1,7.9l-9.5-0.7c-29.1-2.3-57.6-6.3-74.5-10.5c-8.6-2.1-17.8-5.7-21.5-8.3l-1.3-0.9v-10.5v-10.5l1.2-1.8c1.9-2.8,3.8-4.7,7.4-7.1c6.1-4.1,14.9-6.5,24.8-6.9C54.1,147.1,72.2,147.9,93.2,149.1z"/></g></g></g>
</svg>