<?xml version="1.0" encoding="utf-8"?>
<!-- Svg Vector Icons : http://www.onlinewebfonts.com/icon -->
<!DOCTYPE svg PUBLIC "-//W3C//DTD SVG 1.1//EN" "http://www.w3.org/Graphics/SVG/1.1/DTD/svg11.dtd">
<svg version="1.1" xmlns="http://www.w3.org/2000/svg" xmlns:xlink="http://www.w3.org/1999/xlink" x="0px" y="0px" viewBox="0 0 256 256" enable-background="new 0 0 256 256" xml:space="preserve">
<metadata> Svg Vector Icons : http://www.onlinewebfonts.com/icon </metadata>
<g><g><g><path fill="#A27304" d="M230.5,60.5c-5.3,2.1-9.8,5.6-19.5,14.8c-8.3,8-11.6,10.7-17.2,14l-3.8,2.3l2.8,4.3c1.6,2.4,3.5,5.8,4.3,7.5l1.3,3.3l2-0.3c1.1-0.1,4.7-0.5,7.9-0.7c8.3-0.7,12.2-1.7,18.1-4.6c4.4-2.1,5.8-3.1,9.2-6.5c6.5-6.5,10.2-14.5,10.2-22.3c0-3.5-0.2-4.5-1.4-6.8c-2-3.9-4.7-5.7-8.7-5.8C233.8,59.6,232.1,59.8,230.5,60.5z M237.9,62.6c4.8,1.8,6.7,7.8,4.9,15.1c-2.4,9.4-8.7,17.1-17.3,21.3c-5.4,2.6-10.4,3.7-21.4,4.5l-4.1,0.3l-0.5-1.7c-0.3-0.9-1.6-3.4-2.8-5.4c-1.2-2-2.3-3.8-2.3-4c0-0.1,1.9-1.7,4.5-3.4c2.7-1.8,7.7-6,11.9-10.1c11.2-10.8,15.2-13.9,20.4-16.1C234.1,61.9,235.8,61.8,237.9,62.6z"/><path fill="#A27304" d="M155.6,83.1c-9,2.3-16.6,7.9-21.9,16.3l-1.8,2.9l-1.6-1c-2.7-1.8-8.4-4.3-11.7-5.3c-4.3-1.1-12.5-1.2-16.9-0.1c-18.6,4.9-28,22.3-24.2,44.7c2.8,16.6,17,31.6,40.1,42.6c6.1,2.9,9.1,4,25.4,9.5l10.9,3.6l1.5-1.1c2.2-1.6,22-22.4,25.2-26.5c12-15,18.8-31.2,18.8-44.5c0-18.3-11.2-35.6-26.3-40.5C168.9,82.4,159.7,82.1,155.6,83.1z M172.7,86.4c10.6,3.5,18.3,12.6,22.5,26.5c1.1,3.8,1.3,5.4,1.4,10.9c0.1,9.1-1.6,15.5-6.8,25.8c-5.5,11-11.1,18.2-25.7,33.2l-10.6,10.8l-6.9-2.3c-23.1-7.8-31.8-11.6-41.1-17.9c-18.3-12.2-26.1-24.9-26.1-42.6c-0.1-10.6,2.6-17.6,9-24.1c6-6.1,12.9-8.9,21.8-8.9c7.2,0,13.5,2,19.5,6.2c2.8,2,3.7,2.1,4.4,0.3c1-2.7,5.1-8.1,8.2-11c4.6-4.3,10.9-7.3,16.8-8.2C162.1,84.6,169.6,85.3,172.7,86.4z"/><path fill="#A27304" d="M228.6,103.9c-4.3,2.3-14.1,4.4-23.7,5.1c-4.2,0.3-5.2,0.5-5.1,1.1c0.1,0.4,0.6,2.4,1.2,4.5c1.3,4.9,1.4,15.4,0.2,20.8c-0.4,2-1,4.5-1.1,5.4l-0.3,1.7l4.2-0.3c12.4-1,20.2-6.9,26.7-20.4c4-8.2,4.4-13.5,1.4-16.9C230.3,102.9,230.3,103,228.6,103.9z M231.1,108.8c1.4,6.1-6.7,21.4-14,26.4c-3.2,2.2-7.4,3.7-11.1,4l-3,0.3l0.7-3.2c1.1-5.5,1.3-14,0.4-19.2c-0.4-2.5-0.8-4.8-0.8-5c0-0.2,2.1-0.5,4.6-0.7c7.4-0.5,17.9-2.9,21.2-4.8C230.1,106.1,230.6,106.6,231.1,108.8z"/><path fill="#A27304" d="M20.4,122.3c-5,1-8.4,3.3-9.8,6.5c-0.8,2.1-0.8,6.4,0.1,9.1c2.3,6.5,11.7,13.7,21.1,16.2c2.1,0.5,5.1,0.8,8.7,0.8c7.7-0.1,11.2-1.1,23.9-7.5l10.6-5.3l-0.3-1.5c-0.1-0.8-0.4-4.3-0.6-7.7l-0.3-6.2h-10c-9.8,0-10.1-0.1-20.4-2.1C33.3,122.5,24.1,121.6,20.4,122.3z M30.5,125c2.5,0.3,9,1.4,14.6,2.6c9.3,1.8,10.9,2,18.2,2.1h8v3.3c0,1.8,0.1,4.3,0.3,5.5l0.3,2.2l-9.6,4.9c-12,6-15.4,7-23.6,6.7c-4.5-0.2-6.4-0.5-9.1-1.5c-4.8-1.8-8.5-4.2-12-7.6c-3.8-3.8-5-6-5-9.9c0-4.9,2.4-7.3,8.1-8.1C24.8,124.4,25.5,124.4,30.5,125z"/><path fill="#A27304" d="M207,144.8c-0.8,0.2-3.1,0.4-5,0.4l-3.5,0.1l-1.4,3.6c-1.6,4.1-5.2,11.5-7,14.4c-1.1,1.8-1.2,1.9-0.3,2.6c1.4,1,5.4,1.9,7.2,1.5c2.7-0.6,5.1-2,7.3-4.5c3.9-4.2,6.5-11.7,5.8-16.5C209.7,144.3,209.6,144.2,207,144.8z M207.3,149.9c0,2.4-1.8,7-3.8,10c-2,2.9-5.2,4.8-8.2,4.8c-1.3,0-2.4-0.1-2.4-0.3c0-0.1,1.3-2.9,2.9-6c1.6-3.2,3.2-6.7,3.7-7.9c0.8-2.2,1.2-2.3,6-2.5l1.8-0.1V149.9z"/><path fill="#A27304" d="M72.7,146.4c-9.4,5.7-21.9,10.9-27.6,11.6c-3,0.4-3.4,0.8-3.4,4.1c0,5,6.9,11.3,17.3,15.8c7.8,3.4,14.3,3.9,21,1.6c2.8-0.9,8.3-4,11.2-6.3l1.2-0.9l-3.6-3.9c-6.1-6.7-11.7-16.1-12.7-21.7c-0.1-1-0.4-1.8-0.6-1.7C75.3,144.9,74.1,145.6,72.7,146.4z M75.6,153.1c1.9,4.8,6.1,11.3,9.9,15.4c1.6,1.7,2.7,3.3,2.6,3.6c-0.6,1-6,4-9.1,5c-4.2,1.4-10.3,1.4-14.8,0c-7.5-2.3-16-7.6-18.5-11.7c-2.1-3.4-2-4.4,0.6-4.8c4.4-0.7,10.8-3.1,18.9-7.2c4.7-2.3,8.5-4.2,8.6-4.1C74,149.2,74.8,151,75.6,153.1z"/><path fill="#A27304" d="M92,176.6c-1.3,1-4.1,2.6-6,3.5c-2,0.9-3.6,1.9-3.6,2.3c0,1.4,2.5,5,5,7.1c9.7,8.5,20.8,7.1,23.9-2.9c0.2-0.9-0.3-1.4-3.8-3.6c-2.3-1.4-5.9-3.9-8.2-5.5c-2.2-1.7-4.2-3-4.5-3C94.6,174.6,93.4,175.5,92,176.6z M101.5,182.3c3.5,2.4,6.4,4.6,6.5,5c0.2,1-1.7,3.6-3.5,4.5c-2.2,1.1-7.4,0.7-10.6-0.8c-2.5-1.2-8.2-6.2-8.2-7.2c0-0.3,0.9-0.9,2-1.4c1.1-0.5,3-1.6,4.3-2.5c1.3-0.9,2.5-1.6,2.7-1.6C95,178,98,180,101.5,182.3z"/></g></g></g>
</svg>