<?xml version="1.0" encoding="utf-8"?>
<!-- Svg Vector Icons : http://www.onlinewebfonts.com/icon -->
<!DOCTYPE svg PUBLIC "-//W3C//DTD SVG 1.1//EN" "http://www.w3.org/Graphics/SVG/1.1/DTD/svg11.dtd">
<svg version="1.1" xmlns="http://www.w3.org/2000/svg" xmlns:xlink="http://www.w3.org/1999/xlink" x="0px" y="0px" viewBox="0 0 256 256" enable-background="new 0 0 256 256" xml:space="preserve">
<metadata> Svg Vector Icons : http://www.onlinewebfonts.com/icon </metadata>
<g><g><g><path fill="#A27304" d="M16,48.6l-5.2,4.8l-0.4,63.2L10,179.8l3.2,3.8c2.5,2.8,4.8,3.8,9.5,4.1c5.5,0.3,6.3,0.7,7.6,4.8c4.5,13.1,16.4,20.6,31.2,19.7c11.9-0.7,19.4-5.9,24.8-16.8l3.9-8l39.9,0.1l39.9,0.1l3.9,7.9c2.7,5.3,5.9,9.3,10,12.1c5.6,3.8,7.2,4.2,17.1,4.2c10,0,11.5-0.4,17.1-4.2c3.9-2.8,7.4-7,10.1-12.4c3.5-6.9,4.6-8,8-8c4.2,0,9.7-5.6,9.7-9.8c0-3.2-5.3-9.8-7.9-9.8c-1.5,0-2-2.9-2-15.4v-15.4L224.9,111c-7.7-18-12.5-26.8-15.4-29.6c-4.1-3.7-4.8-3.8-20.4-3.8H173v-9.1c0-10.8-2.4-17.3-7.7-21.5c-3.9-3.1-4.2-3.1-73.8-3.1H21.4L16,48.6z M162.6,53.8c2.5,2.8,2.7,5.9,2.7,58v54.9l-39.2,0.4l-39.3,0.3l-5.6-5.5c-13.5-13.2-31.2-13.3-44.1-0.4c-5.8,5.6-6.6,6-12.6,5.6l-6.6-0.4v-54.9c0-52.1,0.1-55.2,2.7-58c2.7-2.9,3.4-2.9,71-2.9C159.2,50.9,159.9,50.9,162.6,53.8z M205.7,87c1.1,1.4,7,13.5,12.8,26.8l10.7,24.3v14c0,14.5-1,16.6-5.1,10.4c-3.2-5.1-15.3-10.5-22.9-10.5c-8.3,0.1-17.5,4.4-23.4,10.8L173,168v-41.7V84.6h15.2C200.9,84.6,203.7,85,205.7,87z M69.1,162.1c16,8.1,17.1,31.2,2,40.6c-9.3,5.6-23.3,3.2-29.9-5.2c-9.8-12.5-5.6-29.1,9-35.8C57.6,158.3,61.7,158.3,69.1,162.1z M210.9,162.1c8.8,4.5,12.6,10.8,12.6,20.8c0,13.6-8.8,22.7-22.3,22.7c-25.4,0-32.6-33.4-9.4-43.9C199.4,158.3,203.5,158.3,210.9,162.1z M28.8,177.4c-0.7,2.2-1.7,2.7-5.9,2.4c-3.5-0.3-5.2-1.1-5.5-2.9c-0.4-2,0.6-2.4,5.8-2.4C29,174.4,29.5,174.7,28.8,177.4z M171.6,175c0,0.3-0.4,1.5-0.8,2.8c-0.7,2-5.8,2.2-41.4,2.2c-39.6,0-40.6,0-40.6-2.8c0-2.8,1-2.8,41.4-2.8C152.9,174.4,171.6,174.7,171.6,175z M238,176.4c0.4,1.1,0.4,2.4,0,2.8c-1,1-6,1.1-6,0.3c0-0.3-0.4-1.5-0.8-2.8c-0.7-1.7,0-2.2,2.7-2.2C235.8,174.4,237.6,175.3,238,176.4z"/><path fill="#000000" d="M179.3,91.9c-0.4,1.8-0.6,13.1-0.4,25l0.4,21.8l20.2,0.4c11.2,0.1,20.9-0.3,21.6-1c0.7-0.7-2.7-10.2-9.1-25l-10.2-23.6L191,89.1C180.7,88.6,180,88.8,179.3,91.9z M202.2,108.7c3.2,7.2,6.7,15.4,8,18.3l2.1,5.3H199h-13.3V115c0-9.5,0.4-17.8,1-18.3c0.4-0.6,2.9-1,5.5-1C196.4,95.8,196.7,96.2,202.2,108.7z"/><path fill="#000000" d="M51.1,174.8c-4.5,4.8-4.2,12.5,0.6,16.3c7.7,6,18.8,1.1,18.8-8.3C70.5,173.2,57.7,167.8,51.1,174.8z M63.1,180.9c0.4,1.1-0.3,3.2-1.5,4.5c-2.1,2.1-2.4,2.1-4.5,0c-2.9-2.9-1.5-6.7,2.2-6.7C60.8,178.6,62.5,179.6,63.1,180.9z"/><path fill="#000000" d="M193.4,175.1c-7,6.9-2.1,19,7.7,19c5.8,0,11.2-5.5,11.2-11.2c0-5.8-5.5-11.2-11.2-11.2C198.4,171.6,195.5,172.9,193.4,175.1z M204.9,180.9c0.4,1.1-0.3,3.2-1.5,4.5c-2.1,2.1-2.4,2.1-4.5,0c-2.9-2.9-1.5-6.7,2.2-6.7C202.6,178.6,204.3,179.6,204.9,180.9z"/></g></g></g>
</svg>